<?xml version="1.0" encoding="UTF-8" standalone="yes"?>
<svg version="1.2" viewBox="0 0 180 180" xml:space="preserve" baseProfile="tiny-ps" xmlns="http://www.w3.org/2000/svg">
  <title>bimi-svg-tiny-12-ps</title>
  <g>
    <g>
      <polygon class="st0" points="22.6,7.2 19.1,7.2 19.1,28.5 13.4,28.5 13.4,152.1 19.1,152.1 19.1,171.2 22.6,171.2 22.6,152.1 &#xD;&#xA;&#x9;&#x9;&#x9;28.3,152.1 28.3,28.5 22.6,28.5 &#x9;&#x9;" fill="#00E200"/>
      <polygon class="st0" points="46,28.5 42.5,28.5 42.5,47.6 36.8,47.6 36.8,152.1 42.5,152.1 42.5,171.2 46,171.2 46,152.1 &#xD;&#xA;&#x9;&#x9;&#x9;51.7,152.1 51.7,47.6 46,47.6 &#x9;&#x9;" fill="#00E200"/>
      <polygon class="st0" points="69.4,41.2 65.9,41.2 65.9,59 60.2,59 60.2,94.6 65.9,94.6 65.9,114.3 69.4,114.3 69.4,94.6 &#xD;&#xA;&#x9;&#x9;&#x9;75.1,94.6 75.1,59 69.4,59 &#x9;&#x9;" fill="#00E200"/>
    </g>
    <g>
      <polygon class="st1" points="168.2,28.5 162.5,28.5 162.5,7.2 158.9,7.2 158.9,28.5 153.3,28.5 153.3,152.1 158.9,152.1 &#xD;&#xA;&#x9;&#x9;&#x9;158.9,171.2 162.5,171.2 162.5,152.1 168.2,152.1 &#x9;&#x9;" fill="#030D58"/>
      <polygon class="st1" points="139.1,28.5 135.5,28.5 135.5,47.6 129.9,47.6 129.9,152.1 135.5,152.1 135.5,171.2 139.1,171.2 &#xD;&#xA;&#x9;&#x9;&#x9;139.1,152.1 144.8,152.1 144.8,47.6 139.1,47.6 &#x9;&#x9;" fill="#030D58"/>
      <polygon class="st1" points="115.7,41.2 112.1,41.2 112.1,59 106.5,59 106.5,94.6 112.1,94.6 112.1,114.3 115.7,114.3 115.7,94.6 &#xD;&#xA;&#x9;&#x9;&#x9;121.3,94.6 121.3,59 115.7,59 &#x9;&#x9;" fill="#030D58"/>
    </g>
    <g>
      <path class="st1" d="M71.9,170.3c0.7,1.2,17,0.5,16.3-1.1c0.8-2.4,0.3-4.4-1.2-6c0-4.9,0.8-9.4,2.2-13.5c1.1-3.1,0.1-6-2.1-9&#xD;&#xA;&#x9;&#x9;&#x9;c-0.9-1.8-0.9-3.6,0.3-5.6c1.6,0.8,3.2,2.9,4.8,5.1c-0.1,6.8,5.4,17.7,5.4,17.7c-0.2,1-0.3,2.1-0.3,3.3c-0.1,2.4,0.1,4.5,0.4,6.3&#xD;&#xA;&#x9;&#x9;&#x9;c-1.1,0.2-2.7,0.6-4.4,1.4c-1.4,0.7-4.4,2.4-4.1,3.3c0.1,0.2,0.3,0.5,4.3,0.7c4.7,0.2,6.4-0.2,7-0.3c1.9-0.5,3.3-0.8,3.9-2&#xD;&#xA;&#x9;&#x9;&#x9;c0.6-1.1,0.2-2.5-0.1-3.5c-0.4-1.4-1.1-2.4-1.6-3c0.2-3.8,0.3-7.8,0.2-12c0-2.8-0.1-4.4-0.1-4.4s-0.6-4.9-2.6-7.2l-1.7-2.3&#xD;&#xA;&#x9;&#x9;&#x9;c1.7-1.3,0.6-18.5-1.4-17.5l0.2-2.2c0-0.1,0-0.1,0-0.2c-2.9-0.9-4.4-2.7-3.3-6.3l1.2-0.7c-0.2-0.3-0.4-0.5-0.6-0.7&#xD;&#xA;&#x9;&#x9;&#x9;c1.1-1.5-0.4-4.5,0.9-6.2l4.1-4.5c1.4-0.1,2.3,0.5,1.8,2.7c-1.6,1.4-2.8,3.9-3.8,7.2l-2.4,1.5c1.1,1.6,1.8,4.1,2.2,7&#xD;&#xA;&#x9;&#x9;&#x9;c0.3,0.1,0.7,0.2,1.1,0.3l2.6-3.3c-0.6-1.5-1-3.9,0.5-3.4c2.2-0.4,14-10.2,11.9-12c-0.5-1.9-1.4-3.3-2.6-4.4&#xD;&#xA;&#x9;&#x9;&#x9;c0.4-1.7-0.7-3.9-3.2-6.6c-1.7-4.8-4-6.5-6.7-6.4c-0.9-1.1-2.1-1.5-3.9-0.9c-0.8-1.1-2.4-1.3-4.4-1l-0.3-5.5&#xD;&#xA;&#x9;&#x9;&#x9;c1.5-1.2,1.7-2.2,0-2.8v-3.3c0.2-2.4-0.5-3.6-2.2-3.7c-3.3-0.7-6-0.3-7.7,2l0.4,5c-1.4,0.8-1.4,1.7,0.2,2.7v6.6&#xD;&#xA;&#x9;&#x9;&#x9;c-0.9,1.2-2.2,1.9-4.2,1.9c0,0-8.6,7.4-0.2,24.3c1.4,6.4-2.4,12.8-1.4,19c-0.8,4.2-0.3,7.4,1.8,9.7c-0.4,2.8-0.4,5.5,1.2,7.2&#xD;&#xA;&#x9;&#x9;&#x9;c-0.6,4,0.8,11.7,0.9,20.8C79.9,165.7,69.5,167.8,71.9,170.3z" fill="#030D58"/>
      <path class="st1" d="M93.9,111.9c-1,3.6,0.5,5.4,3.3,6.3c-0.4-2.9-1-5.4-2.2-7L93.9,111.9z" fill="#030D58"/>
      <path class="st2" d="M13.4,99.4c2.5-1.6,8.9-2.7,11.7-2.9c4-0.1,8.9,1,11.9,5c2.7,3.3,6.2,4.8,10.4,4.4c3.5,5.2,8.8,5.6,15.4,2.3&#xD;&#xA;&#x9;&#x9;&#x9;c5.6,2,11,2.1,15.8-0.5c-8.4-17,0.2-24.3,0.2-24.3c-3.3,0.9-5.9,3.7-8.2,7.9c-3.1,2-6.9,3-10.9,3.7c-3.9,0.6-7.9,0.5-11.7-0.6&#xD;&#xA;&#x9;&#x9;&#x9;c-3-0.8-5.7-2-9.2-3.6C27,85.5,15.5,88.9,13.4,99.4z" fill="#ED1C24"/>
      <path class="st1" d="M74.4,118.5c-0.9-0.5-2-1.4-3.2-2.7c-1.3-1.5-1.9-3-2.3-4c-0.5-4.6-0.3-8.3,1.6-10.1c1.4-7.6,3.3-11,5.4-12.9&#xD;&#xA;&#x9;&#x9;&#x9;c5.9,0.4,7.1,4.6,1.3,14.5l-1.4,1c0,0-2.1,5.8-2.1,6c0,0.3,0.1,1.6,0.1,1.6l4.9,0.2c0.8,2.5,0.6,4.9-0.5,5.6&#xD;&#xA;&#x9;&#x9;&#x9;c-1,0.7-3.3,0.7-3.6,0.7C74.7,118.5,74.5,118.5,74.4,118.5z" fill="#030D58"/>
      <path class="st5" d="M68,97.8c-1.3,0.8-2.6,1.5-4.1,1.9c-1.4,0.5-2.9,0.8-4.4,0.9c-1.5,0.1-3,0.1-4.5-0.1c-1.5-0.2-2.9-0.5-4.4-1&#xD;&#xA;&#x9;&#x9;&#x9;c-1.4-0.4-2.8-1-4.2-1.6c-0.7-0.3-1.4-0.7-2-1c-0.7-0.3-1.3-0.7-2-1c-0.7-0.3-1.4-0.6-2.1-0.8c-0.7-0.2-1.5-0.3-2.2-0.4&#xD;&#xA;&#x9;&#x9;&#x9;c-1.5-0.2-3-0.2-4.5-0.1c1.5-0.1,3-0.1,4.5,0.2c0.7,0.1,1.5,0.3,2.2,0.5c0.7,0.2,1.4,0.5,2.1,0.8c1.4,0.6,2.7,1.4,4,2&#xD;&#xA;&#x9;&#x9;&#x9;c1.4,0.6,2.8,1.2,4.2,1.7c1.4,0.4,2.9,0.8,4.4,1c1.5,0.2,3,0.2,4.5,0.1c1.5-0.1,3-0.5,4.4-1C65.4,99.3,66.8,98.6,68,97.8z" fill="#CE1725"/>
      <path class="st5" d="M65.2,104c-0.9,0.5-1.8,0.9-2.7,1.3c-0.9,0.3-1.9,0.5-2.9,0.6c-1,0.1-2,0-3-0.1c-1-0.1-1.9-0.4-2.9-0.7&#xD;&#xA;&#x9;&#x9;&#x9;c-0.9-0.3-1.9-0.7-2.8-1.1c-0.5-0.2-0.9-0.4-1.3-0.7c-0.4-0.2-0.9-0.5-1.3-0.7c-0.9-0.4-1.9-0.7-2.9-0.8c-1-0.1-2-0.1-3,0&#xD;&#xA;&#x9;&#x9;&#x9;c1-0.1,2,0,3,0.1c1,0.1,1.9,0.4,2.8,0.8c0.9,0.4,1.8,0.9,2.7,1.3c0.9,0.4,1.8,0.8,2.8,1.1c1.9,0.6,3.9,0.9,5.9,0.7&#xD;&#xA;&#x9;&#x9;&#x9;c1-0.1,2-0.3,2.9-0.7C63.5,105,64.3,104.5,65.2,104z" fill="#CE1725"/>
      <g class="st3">
        <g>
          <path class="st4" d="M87.2,89.5c-1.1,0.5-2.3,0.9-3.6,0.9c-1.3,0.1-2.6-0.1-4-0.4l0-0.1c2.8,0.7,5.3,0.6,7.5-0.5L87.2,89.5&#xD;&#xA;&#x9;&#x9;&#x9;&#x9;&#x9;l0-0.1c2.8,0.7,5.3,0.6,7.5-0.5l0,0.1c-1.2,0.5-2.4,0.9-3.6,0.9C89.9,90,88.6,89.9,87.2,89.5z" fill="#282828"/>
          <g>
            <path class="st4" d="M87.3,89.7c-1.8,0.9-3.9,1.1-5.9,0.9c-0.6-0.1-1.2-0.2-1.8-0.3c-0.1,0-0.1-0.1-0.1-0.2c0,0,0-0.1,0-0.1&#xD;&#xA;&#x9;&#x9;&#x9;&#x9;&#x9;&#x9;c0-0.1,0.1-0.1,0.2-0.1c1.9,0.5,4,0.6,5.9,0.1c0.5-0.2,1-0.3,1.5-0.6c0.1,0,0.2,0,0.2,0.1c0,0,0,0,0,0.1c-0.1,0-0.2,0-0.3,0&#xD;&#xA;&#x9;&#x9;&#x9;&#x9;&#x9;&#x9;c0,0,0,0,0-0.1c0-0.1,0.1-0.1,0.2-0.1c1.9,0.5,4,0.6,5.9,0.1c0.5-0.2,1-0.3,1.5-0.6c0.1,0,0.2,0,0.2,0.1c0,0,0,0.1,0,0.1&#xD;&#xA;&#x9;&#x9;&#x9;&#x9;&#x9;&#x9;c0,0.1,0,0.2-0.1,0.2C93,90,91,90.3,88.9,90C88.3,89.9,87.8,89.8,87.3,89.7c-0.3,0-0.2-0.4,0-0.3c1.9,0.5,4,0.6,5.9,0.1&#xD;&#xA;&#x9;&#x9;&#x9;&#x9;&#x9;&#x9;c0.5-0.2,1.1-0.4,1.6-0.6c0,0.1-0.1,0.1-0.1,0.2c0,0,0-0.1,0-0.1c0.1,0,0.1,0.1,0.2,0.1C93,89.9,91,90.1,89,89.9&#xD;&#xA;&#x9;&#x9;&#x9;&#x9;&#x9;&#x9;c-0.6-0.1-1.2-0.2-1.8-0.4c0.1,0,0.1-0.1,0.2-0.1c0,0,0,0,0,0.1c0,0.2-0.3,0.2-0.3,0c0,0,0,0,0-0.1c0.1,0,0.1,0.1,0.2,0.1&#xD;&#xA;&#x9;&#x9;&#x9;&#x9;&#x9;&#x9;c-1.8,0.8-3.8,1.1-5.8,0.9c-0.6-0.1-1.2-0.2-1.8-0.4c0.1,0,0.1-0.1,0.2-0.1c0,0,0,0.1,0,0.1c0-0.1-0.1-0.1-0.1-0.2&#xD;&#xA;&#x9;&#x9;&#x9;&#x9;&#x9;&#x9;c1.9,0.5,4,0.6,5.9,0.1c0.5-0.2,1.1-0.4,1.6-0.6C87.3,89.3,87.4,89.6,87.3,89.7z" fill="#282828"/>
          </g>
        </g>
        <g>
          <path class="st4" d="M87.4,93.1L87.4,93.1L87.4,93.1c2.1,0.5,4,0.4,5.7-0.4l0,0.1c-0.9,0.4-1.8,0.6-2.7,0.7&#xD;&#xA;&#x9;&#x9;&#x9;&#x9;&#x9;c-0.9,0.1-1.9,0-3-0.3c-0.9,0.4-1.8,0.6-2.7,0.7c-1,0.1-1.9,0-3-0.3l0-0.1C83.9,94.1,85.7,93.9,87.4,93.1z" fill="#282828"/>
          <g>
            <path class="st4" d="M87.6,93.1C87.6,93.1,87.6,93.1,87.6,93.1c-0.1,0.1-0.2,0.1-0.3,0.1c0,0,0,0,0-0.1c0-0.1,0.1-0.1,0.2-0.1&#xD;&#xA;&#x9;&#x9;&#x9;&#x9;&#x9;&#x9;c1,0.2,1.9,0.4,2.9,0.3c0.9-0.1,1.8-0.3,2.7-0.7c0.1,0,0.2,0,0.2,0.1c0,0,0,0.1,0,0.1c0,0.1,0,0.2-0.1,0.2&#xD;&#xA;&#x9;&#x9;&#x9;&#x9;&#x9;&#x9;c-1.4,0.6-2.9,0.9-4.4,0.7c-0.4,0-0.8-0.1-1.2-0.2c-0.1,0-0.2,0-0.3,0c-0.1,0-0.2,0.1-0.2,0.1c-0.2,0.1-0.4,0.1-0.6,0.2&#xD;&#xA;&#x9;&#x9;&#x9;&#x9;&#x9;&#x9;c-0.7,0.2-1.5,0.4-2.3,0.4c-0.9,0-1.7-0.1-2.6-0.3c-0.1,0-0.1-0.1-0.1-0.2c0,0,0-0.1,0-0.1c0-0.1,0.1-0.1,0.2-0.1&#xD;&#xA;&#x9;&#x9;&#x9;&#x9;&#x9;&#x9;c1,0.2,1.9,0.4,2.9,0.3c0.9-0.1,1.8-0.3,2.7-0.7c0.2-0.1,0.3,0.2,0.1,0.3c-0.9,0.4-1.8,0.6-2.7,0.7c-1,0.1-2-0.1-3-0.3&#xD;&#xA;&#x9;&#x9;&#x9;&#x9;&#x9;&#x9;c0.1,0,0.1-0.1,0.2-0.1c0,0,0,0.1,0,0.1c0-0.1-0.1-0.1-0.1-0.2c1.5,0.4,3,0.5,4.5,0c0.4-0.1,0.7-0.3,1.1-0.4&#xD;&#xA;&#x9;&#x9;&#x9;&#x9;&#x9;&#x9;c0.2-0.1,0.4,0,0.5,0.1c0.2,0,0.4,0.1,0.6,0.1c0.7,0.1,1.5,0.2,2.2,0.1c0.8-0.1,1.7-0.3,2.4-0.7c0,0.1-0.1,0.1-0.1,0.2&#xD;&#xA;&#x9;&#x9;&#x9;&#x9;&#x9;&#x9;c0,0,0-0.1,0-0.1c0.1,0,0.1,0.1,0.2,0.1c-0.9,0.4-1.8,0.6-2.7,0.7c-1,0.1-2-0.1-3-0.3C87.5,93.2,87.6,93.2,87.6,93.1&#xD;&#xA;&#x9;&#x9;&#x9;&#x9;&#x9;&#x9;c0,0.1,0,0.1,0,0.1c0,0.2-0.3,0.2-0.3,0c0,0,0,0,0-0.1C87.2,93,87.5,92.9,87.6,93.1z" fill="#282828"/>
          </g>
        </g>
        <g>
          <path class="st4" d="M87.4,98.2L87.4,98.2L87.4,98.2c1.6,0.4,3,0.3,4.2-0.3l0,0.1c-0.6,0.3-1.3,0.5-2,0.5c-0.7,0-1.4,0-2.2-0.2&#xD;&#xA;&#x9;&#x9;&#x9;&#x9;&#x9;c-0.6,0.3-1.3,0.5-2,0.5c-0.7,0-1.4,0-2.2-0.2l0-0.1C84.8,98.9,86.2,98.8,87.4,98.2z" fill="#282828"/>
          <g>
            <path class="st4" d="M87.6,98.1C87.6,98.2,87.6,98.2,87.6,98.1c-0.1,0.1-0.2,0.1-0.3,0.1c0,0,0,0,0-0.1c0-0.1,0.1-0.1,0.2-0.1&#xD;&#xA;&#x9;&#x9;&#x9;&#x9;&#x9;&#x9;c0.7,0.2,1.4,0.3,2.2,0.2c0.7,0,1.3-0.2,2-0.5c0.1,0,0.2,0,0.2,0.1c0,0,0,0.1,0,0.1c0,0.1,0,0.2-0.1,0.2&#xD;&#xA;&#x9;&#x9;&#x9;&#x9;&#x9;&#x9;c-1,0.5-2.2,0.6-3.3,0.5c-0.3,0-0.6-0.1-0.9-0.2c-0.1,0-0.2,0.1-0.3,0.1c-0.1,0.1-0.3,0.1-0.4,0.1c-0.5,0.2-1.1,0.3-1.7,0.3&#xD;&#xA;&#x9;&#x9;&#x9;&#x9;&#x9;&#x9;c-0.6,0-1.3-0.1-1.9-0.3c-0.1,0-0.1-0.1-0.1-0.2c0,0,0-0.1,0-0.1c0-0.1,0.1-0.1,0.2-0.1c0.7,0.2,1.4,0.3,2.2,0.2&#xD;&#xA;&#x9;&#x9;&#x9;&#x9;&#x9;&#x9;c0.7,0,1.3-0.2,2-0.5c0.2-0.1,0.3,0.2,0.1,0.3c-1.4,0.6-2.9,0.7-4.3,0.3c0.1,0,0.1-0.1,0.2-0.1c0,0,0,0.1,0,0.1&#xD;&#xA;&#x9;&#x9;&#x9;&#x9;&#x9;&#x9;c0-0.1-0.1-0.1-0.1-0.2c1.1,0.3,2.2,0.3,3.3,0c0.3-0.1,0.5-0.2,0.8-0.3C87.4,98.2,87.4,98.2,87.6,98.1c0,0,0.1,0.1,0.1,0.1&#xD;&#xA;&#x9;&#x9;&#x9;&#x9;&#x9;&#x9;c0.1,0,0.3,0.1,0.4,0.1c0.5,0.1,1.1,0.1,1.7,0.1c0.6-0.1,1.3-0.2,1.8-0.5c0,0.1-0.1,0.1-0.1,0.2c0,0,0-0.1,0-0.1&#xD;&#xA;&#x9;&#x9;&#x9;&#x9;&#x9;&#x9;c0.1,0,0.1,0.1,0.2,0.1c-1.4,0.6-2.9,0.7-4.3,0.3C87.5,98.3,87.6,98.3,87.6,98.1c0,0.1,0,0.1,0,0.1c0,0.2-0.3,0.2-0.3,0&#xD;&#xA;&#x9;&#x9;&#x9;&#x9;&#x9;&#x9;c0,0,0,0,0-0.1C87.2,98.1,87.5,97.9,87.6,98.1z" fill="#282828"/>
          </g>
        </g>
      </g>
    </g>
  </g>
</svg>